<svg xmlns="http://www.w3.org/2000/svg" viewBox="0 0 344.82 300.55"><defs><style>.cls-1{fill:#94e933;}</style></defs><title>Asset 1</title><g id="Layer_2" data-name="Layer 2"><g id="splitsvg"><g id="svgg"><path id="path2" class="cls-1" d="M157.47.17a4.11,4.11,0,0,0,1.51,0c.36-.09,0-.17-.85-.16s-1.12.08-.65.17m129.31,0a4.11,4.11,0,0,0,1.51,0c.36-.09,0-.17-.85-.16s-1.12.08-.65.17m-159,.49c0,.21.26.38.57.38s.56-.17.56-.38-.25-.38-.56-.38-.57.17-.57.38M266.61.93a8.27,8.27,0,0,0,2.07,0c.57-.09.1-.16-1-.16s-1.61.07-1,.16M.35,1.8c-1,1,.37,4.6,2,5.11A1,1,0,0,1,3,7.82c0,.38.15.75.34.82s.4.63.47,1.26c.14,1.21.71,2.1,1.17,1.82.15-.09.28.15.28.53,0,1,1.44,3.86,1.92,3.86.22,0,.3.15.18.34s0,.54.35.8a1.67,1.67,0,0,1,.56,1.11A2.23,2.23,0,0,0,9,19.69a3.91,3.91,0,0,1,1,1.38c.12.39.37.62.55.51s.33.1.35.47c0,1.46.17,1.95.47,1.76s.31.1.31.46.11.54.25.4,1.26,1.41,1.26,2.07a6.37,6.37,0,0,0,.93,1.72c.51.75.82,1.55.69,1.77s-.1.29.06.15.71.54,1.23,1.51a12.89,12.89,0,0,0,1.18,2,13.16,13.16,0,0,1,1.19,2.06c.52,1,1.53,2.81,2.25,4S22,42,22.05,42.13a8,8,0,0,0,1.55,2.76c.48.59.79,1.22.67,1.4s.14.55.56.81a1.77,1.77,0,0,1,.77,1.33c0,.47.13.85.28.85s.5.48.76,1.06a8,8,0,0,0,1.2,1.85c.4.43.65.86.56,1s.08.39.4.65a1.84,1.84,0,0,1,.57,1.25c0,.42.1.67.23.54s1,1.28,2,3.12A32.48,32.48,0,0,0,34.16,63c.45.51.74,1,.65,1.1s.09.38.41.64a1.63,1.63,0,0,1,.57,1A2,2,0,0,0,36.45,67a7,7,0,0,1,1.21,1.74,21.25,21.25,0,0,0,1.22,2.13,3.89,3.89,0,0,1,.67,1.53,2.73,2.73,0,0,0,.75,1.34,2.74,2.74,0,0,1,.75,1.39c0,.32.17.58.38.58s.38.34.38.75.17.75.37.75c.43,0,1.67,2.26,1.25,2.27-.16,0-.11.13.1.28a17.89,17.89,0,0,1,1.87,2.82,9.81,9.81,0,0,0,1.79,2.55c.18,0,.22.17.09.38s-.06.38.14.38.49.38.64.85a3.81,3.81,0,0,0,1,1.46,2.17,2.17,0,0,1,.7,1.39,3.44,3.44,0,0,0,.93,1.79c.51.56.84,1.16.73,1.34s0,.33.19.33.4.41.4.9a1.26,1.26,0,0,0,.6,1.13.61.61,0,0,1,.39.79c-.12.31,0,.52.18.47s.59.25.83.67a4.28,4.28,0,0,0,.71,1,1.81,1.81,0,0,1,.4.94A7.31,7.31,0,0,0,56.77,102a1.78,1.78,0,0,1,.52,1,2.56,2.56,0,0,0,.52,1.11c.84,1.1.66-1.13-.2-2.53-.39-.63-1.13-2-1.64-3-1-2.13-2.56-4-3.29-4-.4,0-.4-.06,0-.31.58-.37.32-1.18-1-3.26a10.24,10.24,0,0,1-1.06-2A19.35,19.35,0,0,0,49,86.21a15.49,15.49,0,0,1-1.52-2.68,3.65,3.65,0,0,0-1-1.29,7,7,0,0,1-1.41-2.67,3.73,3.73,0,0,0-.93-1.9.82.82,0,0,1-.47-.71A13.86,13.86,0,0,0,41.41,73a10.77,10.77,0,0,1-1-1.76,6.92,6.92,0,0,0-1.19-1.82,11.55,11.55,0,0,1-1.52-2.57,35.3,35.3,0,0,0-3.78-6.32,8.31,8.31,0,0,1-1.7-3.33,10.25,10.25,0,0,0-1.26-2.18,11.7,11.7,0,0,1-1.15-1.84,11,11,0,0,0-1.07-1.78,10.48,10.48,0,0,1-1.31-2.55A5,5,0,0,0,26.25,47a13.41,13.41,0,0,1-1.87-3.07c-.54-1.19-1.16-2.17-1.38-2.17s-.4-.33-.4-.73a1.25,1.25,0,0,0-.38-1,1,1,0,0,1-.38-.79,2.66,2.66,0,0,0-.74-1.35,9.37,9.37,0,0,1-1.34-2.15,20.25,20.25,0,0,0-1-1.93c-.19-.31-.71-1.25-1.15-2.07A15.06,15.06,0,0,0,16,29.31a32.83,32.83,0,0,1-3.37-5.56c-.23-.47-.54-.85-.7-.85s-.28-.33-.28-.73c0-.78-1.79-3.14-2.2-2.9-.14.08-.26-.48-.26-1.26a4.37,4.37,0,0,0-1.41-3,5.06,5.06,0,0,1-1.4-2.65,3.79,3.79,0,0,0-.75-2,3.57,3.57,0,0,1-.75-1.77c0-1.08-1-3-1.61-3C2.15,5.52,1.51,4.61,2,3.71l.45-.86,18.84,0c15.51,0,19,.14,19.65.58.89.58,5.53,7.39,5.66,8.31a10.22,10.22,0,0,0,1.25,2.33A9.35,9.35,0,0,1,49,16.23a9.38,9.38,0,0,0,1.32,2.15,9.11,9.11,0,0,1,1.32,2.18,10.19,10.19,0,0,0,1.32,2.3,10.72,10.72,0,0,1,1.32,2.27,11.19,11.19,0,0,0,1.32,2.31,10.66,10.66,0,0,1,1.32,2.34A6,6,0,0,0,58,31.52a13.21,13.21,0,0,1,1.58,2.69,10.65,10.65,0,0,0,1.39,2.39,33,33,0,0,1,2.56,4.55A52.89,52.89,0,0,0,66.13,46a7.15,7.15,0,0,1,1,1.71,8.76,8.76,0,0,0,1.3,1.95,9.64,9.64,0,0,1,1.53,2.58,6.91,6.91,0,0,0,1.33,2.19,7,7,0,0,1,1.35,2.28,12.74,12.74,0,0,0,1.51,2.91,10.46,10.46,0,0,1,1.26,2.23,30.16,30.16,0,0,0,3.41,5.51,11.2,11.2,0,0,1,1.48,2.83,7.7,7.7,0,0,0,1.35,2.45,11.16,11.16,0,0,1,1.6,2.64,7.61,7.61,0,0,0,1.32,2.2,4.9,4.9,0,0,1,1,1.88,4.74,4.74,0,0,0,.93,1.78,20,20,0,0,1,2,3.58,62.72,62.72,0,0,0,3.24,5.81,20.74,20.74,0,0,1,1.71,2.92,10,10,0,0,0,1.32,2,7.58,7.58,0,0,1,1.32,2.21,2.09,2.09,0,0,0,.71,1.12,7.77,7.77,0,0,1,1.38,2.41,19.22,19.22,0,0,0,1.74,3.35,6.7,6.7,0,0,1,1.07,2.1,2.85,2.85,0,0,0,.78,1.36,45.67,45.67,0,0,1,4.38,7.29,8,8,0,0,0,1.26,2,11.77,11.77,0,0,1,1.51,2.56,36.48,36.48,0,0,0,3.85,6.56,7,7,0,0,1,1.1,2,20.16,20.16,0,0,0,1.7,3.26,14.22,14.22,0,0,1,1.25,2.21,10.22,10.22,0,0,0,1.09,1.87,12.91,12.91,0,0,1,1.36,2.51,6.64,6.64,0,0,0,1.33,2A6.17,6.17,0,0,1,122,142.6a7,7,0,0,0,1.35,2.37,4.5,4.5,0,0,1,1.07,1.78,4.52,4.52,0,0,0,1.07,1.78,12,12,0,0,1,1.75,3,4.59,4.59,0,0,0,.94,1.79,10.48,10.48,0,0,1,1.7,3.46,4.72,4.72,0,0,0,.85,1.33c.47.58,1.45,2,2.18,3.09a69.19,69.19,0,0,1,4.34,8,18.24,18.24,0,0,0,1.79,3,8.86,8.86,0,0,1,1.23,2.07,10,10,0,0,0,1.38,2.27,5,5,0,0,1,.75.94,8.35,8.35,0,0,0,1.59,3.09,6.9,6.9,0,0,1,1.19,2.16,5,5,0,0,0,.71,1.54,17.39,17.39,0,0,1,1.45,2.68,13.14,13.14,0,0,0,1.81,3,8.77,8.77,0,0,1,1.47,2.41,9.61,9.61,0,0,0,1.63,2.6,2.41,2.41,0,0,1,.8,1.13,4.36,4.36,0,0,0,.5,1.36,62.91,62.91,0,0,0,3.89,6.63,4.68,4.68,0,0,1,.88,1.57,1.68,1.68,0,0,0,.49.91,11.67,11.67,0,0,1,2.15,3.69,4.58,4.58,0,0,0,.85,1.63,69.49,69.49,0,0,1,4.28,7.43,13.86,13.86,0,0,0,1.33,2.27,12.54,12.54,0,0,1,1.26,2.17c1.76,3.49,4.95,4.12,6.66,1.3a10.57,10.57,0,0,1,1.1-1.59,10.68,10.68,0,0,0,1.1-1.89,22.7,22.7,0,0,1,1.7-2.83,21.66,21.66,0,0,0,1.68-2.83c.46-.93,1.49-2.8,2.3-4.15s1.79-3.13,2.18-4a14.87,14.87,0,0,1,1.66-2.64,10.14,10.14,0,0,0,1.47-2.61,7.49,7.49,0,0,1,1.37-2.34,2.87,2.87,0,0,0,.85-1.59c0-.41.13-.8.28-.86a9.66,9.66,0,0,0,2.36-3.44,6.12,6.12,0,0,1,1.09-2,26.64,26.64,0,0,0,1.75-2.79,15.2,15.2,0,0,1,1.51-2.31,6.29,6.29,0,0,0,1.13-2.25,7.87,7.87,0,0,1,1.31-2.55,9,9,0,0,0,1.32-2.23,22.25,22.25,0,0,1,2-3.53l2.41-3.62a3.94,3.94,0,0,0,.66-1.61,8.24,8.24,0,0,1,1.32-2.54,13.08,13.08,0,0,0,1.33-2.21,6.8,6.8,0,0,1,1.13-1.6,4.94,4.94,0,0,0,1.12-1.8,13.63,13.63,0,0,1,1.7-3,14,14,0,0,0,1.7-3c0-.26.13-.48.28-.48.34,0,1.12-1.32,3.36-5.63a35.12,35.12,0,0,1,2.16-3.77,12,12,0,0,0,1.25-2.28,23.51,23.51,0,0,1,1.74-3.16,5.74,5.74,0,0,0,1-2.14c0-.37.14-.73.31-.79.53-.22,3.77-5.09,4.9-7.37,2.09-4.21,3.47-6.67,4.18-7.44a5.06,5.06,0,0,0,1-2,6.21,6.21,0,0,1,1.12-2.26,16.65,16.65,0,0,0,1.66-2.6,36.88,36.88,0,0,1,1.92-3.23c.62-.91,1.74-2.83,2.5-4.27a26.15,26.15,0,0,1,1.94-3.24,19.69,19.69,0,0,0,1.67-2.83,66.08,66.08,0,0,1,3.71-6.7,57.8,57.8,0,0,0,3.37-6.06,26.36,26.36,0,0,1,2-3.24A5.75,5.75,0,0,0,256,86a10,10,0,0,1,1.32-2.31c1.69-2.46,3.58-6,3.58-6.62a9.1,9.1,0,0,1,1.51-2.53A9.55,9.55,0,0,0,263.88,72a4.69,4.69,0,0,1,1.07-1.71,9.36,9.36,0,0,0,1.52-2.56,14.26,14.26,0,0,1,1.31-2.64c1.93-3,3.63-6,3.63-6.49A3.68,3.68,0,0,1,272.54,57a7.07,7.07,0,0,0,1.56-2.41,14.55,14.55,0,0,1,1.66-3,12.86,12.86,0,0,0,1.51-2.66,6.87,6.87,0,0,1,1-1.84,3.27,3.27,0,0,0,.7-1.37,1.4,1.4,0,0,1,.5-.89c.95-.79,1.95-4.43,1.49-5.44-.84-1.84-.15-1.82-54.89-1.7l-51.2.11-.74.94c-1,1.26-.68,4.56.6,6.24.82,1.08,1.38,2.12,4,7.35a11.43,11.43,0,0,0,1.64,2.59,4.93,4.93,0,0,1,1,2A12.2,12.2,0,0,0,182.81,60a9.74,9.74,0,0,1,1.31,2.72,3.55,3.55,0,0,0,.87,1.7,11.8,11.8,0,0,1,1.69,2.76c.6,1.24,1.5,2.94,2,3.77a6.5,6.5,0,0,1,.92,2.14,4,4,0,0,0,1,1.76,10.33,10.33,0,0,1,1.5,2.69,13.25,13.25,0,0,0,1.38,2.72c1.46,2,1.39,4.39-.2,7a15.32,15.32,0,0,0-1.36,2.51,9.14,9.14,0,0,1-1.13,1.94,8.15,8.15,0,0,0-1.13,2,8.88,8.88,0,0,1-1.35,2.14,7.94,7.94,0,0,0-1.44,2.63,5.3,5.3,0,0,1-1.16,2.13A12,12,0,0,0,184,103.2a8.75,8.75,0,0,1-1.33,2.17c-.43.47-.67.85-.54.85a70.38,70.38,0,0,1-4.62,7.92,14.44,14.44,0,0,0-1.11,2c-1.05,2.09-2.52,1.86-3.41-.53a17.13,17.13,0,0,0-1-2.19c-.3-.52-1.11-2-1.79-3.39a59.71,59.71,0,0,0-4.18-7.16,11.32,11.32,0,0,1-1.15-2.45,8.53,8.53,0,0,0-1.1-2.26A9.09,9.09,0,0,1,162.65,96a13.53,13.53,0,0,0-1.73-2.83,8.85,8.85,0,0,1-1.44-2.55c-.25-.78-.59-1.41-.74-1.41a5.44,5.44,0,0,1-1.17-1.89A10.26,10.26,0,0,0,156,84.88a3.6,3.6,0,0,1-.89-1.62,17,17,0,0,0-1.72-3.45,12.05,12.05,0,0,1-1.49-3,2.35,2.35,0,0,0-.79-1.32,9.38,9.38,0,0,1-1.56-2.23,22.7,22.7,0,0,0-1.61-2.64,7.54,7.54,0,0,1-1.11-2.25,25.27,25.27,0,0,0-3.9-6.61,5.14,5.14,0,0,1-1.08-1.89,36.5,36.5,0,0,0-4.1-7.92,8,8,0,0,1-1.32-2.45,11,11,0,0,0-1.55-2.88,5.18,5.18,0,0,1-1.08-2,1.83,1.83,0,0,0-.51-1.09,62.63,62.63,0,0,1-4.36-7.67,22.18,22.18,0,0,0-1.82-3,8.1,8.1,0,0,1-1.22-2.46,5.66,5.66,0,0,0-1.3-2.26,4.57,4.57,0,0,1-1.17-2,6.22,6.22,0,0,0-1.07-2.12A11.62,11.62,0,0,1,121,22a46.89,46.89,0,0,0-4.16-7.72,12.2,12.2,0,0,1-1.37-2.37,13.08,13.08,0,0,0-1.44-2.48,8.73,8.73,0,0,1-1.18-2.32,8.71,8.71,0,0,0-1.19-2.32,1.41,1.41,0,0,1-.38-1.24C111.58,2.84,342,2.6,343,3.26c.68.43.15,2-1.42,4.31a11,11,0,0,0-1.36,2.57,6,6,0,0,1-1.28,2c-1.06,1.13-1.22,1.4-3.54,5.82-.71,1.35-1.82,3.43-2.46,4.62a6.8,6.8,0,0,0-1,2.17c.12,0-.29.53-.92,1.17a6.07,6.07,0,0,0-1.38,2.1,21,21,0,0,1-2.09,3.73A40.24,40.24,0,0,0,325,36.36a18.08,18.08,0,0,1-1.74,3,48.16,48.16,0,0,0-2.86,4.92A45.41,45.41,0,0,1,318,48.54a21.92,21.92,0,0,0-1.56,2.58c-1.71,3.18-2.26,4.14-3.23,5.64a19.51,19.51,0,0,0-1.57,3.16,4.37,4.37,0,0,1-1.19,2c-.51.2-2.29,3.26-1.89,3.26.11,0-.31.7-.93,1.56a6.68,6.68,0,0,0-1.13,2,4.16,4.16,0,0,1-1,1.61,14.21,14.21,0,0,0-1.68,2.76,13.26,13.26,0,0,1-1.7,2.74,6.2,6.2,0,0,0-1.19,2c-.12.48-.35.87-.51.87s-.55.55-.86,1.22a61.83,61.83,0,0,1-2.81,5.6,1.8,1.8,0,0,0-.29,1.7c.29.65.33.63.47-.22a2.41,2.41,0,0,1,.63-1.32,8.3,8.3,0,0,0,1.3-1.89,18,18,0,0,1,2.41-3.72,2.59,2.59,0,0,0,.66-1.27c0-.28.17-.41.38-.28s.38-.13.38-.58a5.6,5.6,0,0,1,1.23-2.36c.67-.85,1-1.4.66-1.22s-.14-.16.38-.77a7.6,7.6,0,0,1,1.23-1.22c.16-.07.17-.31,0-.53a.69.69,0,0,1,.28-.82A4.65,4.65,0,0,0,308,68.36a1,1,0,0,1,.73-.78c.45-.14.65-.45.52-.78a2.31,2.31,0,0,1,.48-1.58,3.39,3.39,0,0,0,.62-1.27,6.16,6.16,0,0,1,1.24-1.7,5.85,5.85,0,0,0,1.3-1.93.48.48,0,0,1,.47-.48c.35,0,.33-.09,0-.33s-.36-.39-.17-.47c.65-.26,2.8-3.72,2.31-3.72-.26,0,.08-.51.76-1.13s1-1.13.77-1.13-.16-.34.3-.85a8.92,8.92,0,0,0,1.29-2.07c.29-.67.65-1.22.81-1.22s.29-.35.29-.78.17-.67.38-.54.38-.19.38-.74a1.28,1.28,0,0,1,.85-1.32c.5-.2.62-.35.28-.38s-.43-.12.1-.42c.37-.21.57-.55.45-.74s0-.35.18-.35a.42.42,0,0,0,.4-.43,2.2,2.2,0,0,1,.78-1.1,1.75,1.75,0,0,0,.7-1.18c-.12-.75.44-1.85.83-1.61.19.11.34-.14.34-.57s.17-.78.38-.78.38-.35.38-.78c0-.75.88-2,1.19-1.67.08.08.19-.31.23-.87a2.72,2.72,0,0,1,.83-1.65,2,2,0,0,0,.76-1,.39.39,0,0,1,.38-.41c.21,0,.38-.23.38-.51A6.94,6.94,0,0,1,331.39,28a.42.42,0,0,0,.14-.57c-.12-.19,0-.35.18-.35s.4-.25.4-.56.17-.57.38-.57.38-.34.38-.75.17-.75.38-.75.38-.23.38-.51a2.17,2.17,0,0,1,.74-1.18c.41-.37.72-.78.69-.91-.1-.45,1-2.31,1.31-2.31.2,0,.27-.23.16-.51s.13-.79.52-1.13a2.27,2.27,0,0,0,.73-1.47c0-.62.09-.71.33-.34s.41.37.57.12a.46.46,0,0,0-.15-.63.44.44,0,0,1-.17-.6.4.4,0,0,1,.53-.17c.35.22,1.21-.68,1.12-1.18-.14-.79.09-1.19.79-1.37.55-.14.75-.51.75-1.36s.18-1.17.58-1.17,1.37-1.48,1.26-2.18a1.93,1.93,0,0,1,.68-1.79A2.15,2.15,0,0,0,344,2.39c-1.15-.75-233.56-.93-233.56-.18,0,.22-.25.31-.57.19-.86-.33-.68,1.17.38,3.15.5.93.92,1.44.94,1.13,0-.66,1.51,2.16,1.51,2.9a.49.49,0,0,0,.47.5q.47,0-.09.37c-.43.28-.44.37-.06.37.79,0,1.92,1.6,1.93,2.72a2.07,2.07,0,0,0,.76,1.54c.41.29.64.64.5.77s0,.25.38.25.63.3.63.75.17.75.38.75.38.27.38.59-.17.48-.38.35c-.58-.36-.46-.07.51,1.24.49.66,1,1.09,1.13,1s.25.29.25.95.13,1.19.29,1.19a8.8,8.8,0,0,1,2.06,3.22c-.06.1.24.56.66,1,.72.77.91,1.23.81,1.9,0,.15.13.28.33.28s.38.24.38.53a.94.94,0,0,0,.61.76.74.74,0,0,1,.43.9,1.32,1.32,0,0,0,.24,1.11c1,1,1.36,1.6,1.36,2,0,.23.18.3.4.17s.37,0,.33.26c-.14,1,0,1.49.4,1.26.21-.13.38-.07.38.14a.73.73,0,0,1-.47.56c-.38.15-.38.2,0,.22a.58.58,0,0,1,.47.62c0,.32.17.48.38.35s.38.08.38.46a1.83,1.83,0,0,0,.75,1.24,1.77,1.77,0,0,1,.75,1.16c0,.9,1.13,3,1.74,3.25.29.11.43.34.33.51a.42.42,0,0,0,.2.55.44.44,0,0,1,.17.59c-.12.19,0,.35.18.35s.4.34.4.75.13.75.3.75c.48,0,1.6,2.13,1.3,2.46-.15.17-.08.19.16.06s.53.16.68.76a3.36,3.36,0,0,0,.89,1.53c.41.34.44.42.07.23-.53-.27-.1.51.76,1.36a9.16,9.16,0,0,1,.75,1.32,6.57,6.57,0,0,0,1.13,1.63c.5.44.5.47,0,.21s-.49-.2-.06.33a1,1,0,0,1,.26,1c-.13.21,0,.31.25.21.53-.2,1.43,1.4,1.43,2.55,0,.39.17.6.38.47s.38.13.38.57c0,1,1,2.1,1.26,1.41.1-.26.2.07.22.74a2.2,2.2,0,0,0,.41,1.44,1.51,1.51,0,0,1,.42,1.06c0,.69.07.71.22.13.2-.79,1.24.81,1.24,1.91a4.15,4.15,0,0,0,.78,1.65c.43.6.65,1.1.49,1.1s0,.27.45.59.48.48.17.35-.35-.07.09.29.54.65.41.78,0,.25.22.25.38.14.27.31.27.8.83,1.41,1,1.23.92,1.4.16.4.48.52c.5.19.49.29-.09.77-.37.3-.47.45-.22.32s.7.31,1.06,1.07a7.48,7.48,0,0,0,1.34,2,2.14,2.14,0,0,1,.73,1.17c0,.28.17.51.38.51s.38.4.38.9c0,.85.82,1.93,1.18,1.57.09-.09.2.26.24.78A5.56,5.56,0,0,0,157,89.09c.54.71.86,1.3.7,1.3s0,.3.43.66a2.83,2.83,0,0,1,.78,1,3.33,3.33,0,0,0,.79,2,1.87,1.87,0,0,1,.47,1.07c0,.31.13.48.3.38s.88.91,1.6,2.24a9.37,9.37,0,0,0,1.59,2.42c.15,0,.28.34.28.75s.17.75.38.75.38.34.38.75.18.75.4.75.3.16.18.35,0,.6.35.91a2,2,0,0,1,.57,1.16c0,.32.17.59.38.59s.38.26.38.57.17.57.38.57.38.31.38.68a2.78,2.78,0,0,0,.75,1.49c.85.92,1,1.38.28,1-.26-.13-.09.1.38.51a2.42,2.42,0,0,1,.85,1.35c0,.33.17.6.38.6s.38.25.38.57.17.57.38.57a.44.44,0,0,1,.38.47,3.55,3.55,0,0,0,.75,1.41,3.49,3.49,0,0,1,.75,1.59c0,.45.2.57.64.41s.53-.09.38.16.17.48.72.58c1,.19,2.79-1.06,2.79-2,0-.25.17-.35.38-.22s.46-.25.35-1.16c0-.12.35-.54.81-.94s.63-.73.39-.73-.11-.37.32-.82a2.94,2.94,0,0,0,.77-1.2,2,2,0,0,1,.53-1,11.58,11.58,0,0,0,2.11-4c0-.32.16-.48.35-.36s1-1.19.85-1.79c0-.16.18-.39.49-.51a.9.9,0,0,0,.57-.74.48.48,0,0,1,.4-.52c.22,0,.31-.14.21-.31s.18-.89.63-1.6,1.12-1.89,1.48-2.61.66-1.17.67-1c0,.45,1.9-2.34,1.9-2.81A5.24,5.24,0,0,1,192,92.23a5.69,5.69,0,0,0,.83-1.7c.28-.81.71-1.42.95-1.37s.31-.08.18-.3.13-.74.59-1.14a3.18,3.18,0,0,0,.94-2c.05-.67.15-1.57.2-2a6.77,6.77,0,0,0-1.17-4,19.13,19.13,0,0,1-2.26-4.71,3,3,0,0,0-.79-1.27,1.93,1.93,0,0,1-.6-1.57c.1-.4,0-.68-.22-.64s-.48-.26-.57-.67a7.53,7.53,0,0,0-1.26-2.14,11,11,0,0,1-1.53-2.64A10.87,10.87,0,0,0,186,63.81c-1.44-2-2.57-5.42-1.6-4.86.27.15.34.13.16-.07a1.32,1.32,0,0,0-.84-.34c-.29,0-.55-.17-.57-.38a2.41,2.41,0,0,0-.59-1,3.76,3.76,0,0,1-.63-1.95c0-.73-.16-1.32-.26-1.32-.76.05-1.13-.16-1.13-.64a.53.53,0,0,0-.47-.57q-.47,0,.1-.37c.36-.23.4-.37.11-.37s-.36-.26-.22-.64.09-.57-.38-.39-.61.12-.59,0c.2-1.37-.14-2.44-.84-2.62-.54-.14-.64-.29-.33-.49.56-.35.14-1.12-.6-1.12a.61.61,0,0,1-.54-.66,3.81,3.81,0,0,0-.94-1.75c-.92-1.07-1.31-2.38-.57-1.92.21.13.38.05.38-.17s-.26-.4-.57-.4c-.78,0-.71-1,.08-1.3.45-.17.51-.33.21-.52s-.32-.46-.08-.83.4-.49.73,0,.37.41.38.09,1.22-.47,4.81-.47c3.24,0,4.62.13,4.24.37s-.47.37.09.37c.36,0,.66-.16.66-.37s.38-.36.85-.35c.81,0,.81,0,.09.35-.52.22,0,.32,1.7.32s2.2-.1,1.7-.31.46-.27,2.33-.2a15.19,15.19,0,0,1,3.55.4c.29.18.36.13.19-.15-.33-.53-.17-.54,1.09-.06.63.24.91.24.76,0s.66-.36,2-.34,2.18.18,2.07.37,0,.34.19.34a.39.39,0,0,0,.4-.38.39.39,0,0,1,.4-.38c.22,0,.29.17.17.38s.18.38.73.38,1-.17,1-.37,8.22-.37,22.64-.38c15.16,0,22.57.11,22.41.37s-.06.38.16.38a.39.39,0,0,0,.4-.38c0-.21.3-.37.66-.37.56,0,.58.06.09.37s-.4.37.3.37c.49,0,.77-.16.64-.37s.3-.38,1.09-.38a2.4,2.4,0,0,1,1.55.38.88.88,0,0,0,.68.37c.27,0,.23-.16-.12-.39s-.37-.36.38-.28a2.07,2.07,0,0,1,1.21.49c.17.24.44.21.74-.09.56-.56,3.49-.65,3.14-.09-.14.22.21.36.83.35.93,0,1-.06.3-.35s-.73-.32.06-.35a1.09,1.09,0,0,1,1,.44c.14.35.2.35.22,0,.06-.91,14-.65,15,.28a2.79,2.79,0,0,1,.49,3.29c-.18.36-.65,1.31-1,2.11a4,4,0,0,1-1.54,1.78c-.59.23-.77.52-.6,1s.1.55-.2.37-.44,0-.44.68a1.56,1.56,0,0,1-.75,1.35,1.56,1.56,0,0,0-.75,1.33c0,.51-.17.93-.38.93s-.38.34-.38.75-.17.75-.38.75-.38.3-.38.67a1.81,1.81,0,0,1-.75,1.21,1.81,1.81,0,0,0-.75,1.21c0,.37-.17.67-.38.67s-.38.32-.38.71a1.12,1.12,0,0,1-.85,1c-.51.16-.66.33-.38.45a.75.75,0,0,1,.47.6c0,.22-.11.3-.23.17-.41-.41-1.32.81-1.42,1.89-.05.57-.29,1-.53,1s-.34.17-.2.57.1.53-.06.39c-.42-.38-1.82,1.5-1.58,2.12s-1,2.81-1.82,3.11a.86.86,0,0,0-.56.7,1.94,1.94,0,0,1-.85,1.08q-.84.6-.18.38c.5-.17.61-.07.43.38a.93.93,0,0,1-.74.61c-.7,0-1.24,1.08-1,2,.13.51.06.67-.24.49s-.44.09-.44.82a2.67,2.67,0,0,1-.75,1.78,2.22,2.22,0,0,0-.75,1.19c0,.28-.17.51-.38.51s-.36.13-.33.28c.16,1-.1,1.56-.61,1.36s-.5,0-.32.43a.77.77,0,0,1-.14.89,9.19,9.19,0,0,0-2,3.65,1.54,1.54,0,0,1-.75,1,1.53,1.53,0,0,0-.75,1c0,.28-.23.43-.52.32s-.51,0-.51.24a3.42,3.42,0,0,1-.79,2.73,8.54,8.54,0,0,0-1.22,2c-.3.67-.68,1.23-.85,1.23s-.19-.2,0-.43.1-.33-.13-.19a1,1,0,0,0-.2,1c.11.42,0,.75-.22.75s-.42.25-.42.57-.17.57-.38.57-.38.24-.38.53c0,.86-1.61,3.62-2.11,3.62-.29,0-.38.31-.25.81s.08.73-.22.54-.44,0-.45.6c0,1.09-.93,2.35-1.47,2-.22-.14-.42-.11-.43.06a9.82,9.82,0,0,1-2.27,5.05,2.43,2.43,0,0,0-.72,1.12c0,.22-.2.28-.44.13s-.36-.07-.2.35.07.63-.14.63-.35.21-.31.47c.11.71-.45,1.81-.82,1.59s-1.22,1.23-.94,1.68a1.13,1.13,0,0,1-.87,1.54c-.54,0-.55.05-.05.37s.43.37.07.37c-.81,0-1.58,1-1.58,2.05,0,.53-.17,1-.38,1s-.38.35-.38.78-.17.67-.38.54-.38,0-.38.38c0,.72-.93,1.76-1.27,1.42-.13-.13-.23.21-.23.75a1.72,1.72,0,0,1-.66,1.37c-.36.21-.46.39-.22.4s.35.34.23.8-.28.66-.52.28-.32-.17-.32.56-.17,1-.38.83-.38.12-.38.54-.17.78-.38.78-.36.13-.33.28c.13.84-.11,1.28-.59,1.1s-.48,0-.34.32c.34.88-.32,1.58-.68.73-.22-.51-.25-.37-.11.44a1.62,1.62,0,0,1-.38,1.65,1.56,1.56,0,0,0-.58.92,2,2,0,0,1-.66,1.06c-1.15,1.08-1.6,1.76-1.6,2.38,0,.33-.17.5-.38.37s-.38,0-.38.35-.17.59-.38.59-.38.33-.38.73a1.26,1.26,0,0,1-.38,1,1.43,1.43,0,0,0-.38,1.07,2,2,0,0,1-.75,1.38,1.83,1.83,0,0,0-.75,1.24c0,.38-.17.59-.38.46s-.38.13-.38.57-.17.69-.38.57c-.37-.23-.53.28-.39,1.28,0,.35-.14.44-.57.28s-.6-.08-.44.51c.11.42,0,.66-.14.55s-.34.22-.34.75-.21,1-.55,1-.47.22-.34.55c.32.82-.24,1.55-.69.91-.27-.38-.31-.33-.14.19s-.08.94-.72,1.44-.89,1-.72,1.66.08.91-.4.91-.52.17-.4.38,0,.38-.35.38a.56.56,0,0,0-.59.52,1.56,1.56,0,0,1-.56,1c-.31.26-.46.63-.34.82s-.14.67-.58,1.05-.67.75-.32.89.38.2,0,.23a.58.58,0,0,0-.47.62c0,.32-.17.48-.38.36s-.38.12-.38.54-.13.78-.29.78-.51.36-.78.79-.31.68-.09.54.4-.07.4.15c0,.37-.54.56-1.25.43-.17,0-.21.11-.09.3s0,.61-.35.93a2.86,2.86,0,0,0-.57,1.75c0,.69-.16,1.08-.38.95s-.38,0-.38.19-.21.3-.47.14-.24,0,.09.43c.52.65.5.69-.13.45-.46-.17-.64-.11-.54.2.16.48-.05.81-1.48,2.34-.45.49-.75,1-.67,1a3.46,3.46,0,0,1-.54,1.53c-.38.75-.77,1.31-.85,1.23s-.34.27-.58.77c-.33.69-.33.86,0,.7s.11.05-.3.38-.57.6-.38.6.07.18-.29.39a3,3,0,0,0-.9,1.78c-.23,1.24-1.28,3.37-1.28,2.59,0-.16-.26,0-.57.27a2.49,2.49,0,0,0-.57,1.54,3.8,3.8,0,0,1-1.13,2.16,4.25,4.25,0,0,0-1.13,1.69c0,.28-.14.51-.31.51s-.34.25-.38.57l-.13,1.13c0,.31-.22.57-.41.57-.54,0-1.76,1.62-1.78,2.36,0,.36-.18.66-.39.66s-.38.3-.38.66a3.35,3.35,0,0,1-.92,1.66c-.51.55-.82,1.1-.69,1.22s0,.23-.2.23-.32.27-.19.63.1.54-.2.35-.44,0-.44.32c0,1-.07,1.14-.8,1.65a1.61,1.61,0,0,0-.7,1.06c0,.33-.18.46-.44.3s-.33-.1-.18.14,0,.67-.34,1-.5.74-.39.93,0,.55-.35.8a1.58,1.58,0,0,0-.56,1c0,.3-.17.44-.38.31s-.38.19-.38.73-.17,1-.38,1-.38.25-.38.57-.17.57-.38.57-.38.3-.38.67a1.81,1.81,0,0,1-.75,1.21,2.06,2.06,0,0,0-.75,1.64c0,.9-.09,1-.54.65s-.51-.31-.43.24a1.06,1.06,0,0,1-.16.87,20.68,20.68,0,0,0-1.6,2.64c-.74,1.35-1.57,2.46-1.85,2.47a.41.41,0,0,0-.41.52c.18.82-1,2.24-1.7,2.1l-.9-.16c-.75-.1-3-2.94-3-3.81a2.83,2.83,0,0,0-.75-1.21,3,3,0,0,1-.75-1.7c0-.5-.17-.79-.38-.66s-.38,0-.38-.35-.17-.59-.38-.59a.39.39,0,0,1-.38-.4c0-.22.17-.3.37-.17s.28,0,.15-.36a.91.91,0,0,0-.75-.58c-.3,0-.53-.38-.53-.9a2,2,0,0,0-.57-1.37,6.31,6.31,0,0,1-1.17-1.74c-.33-.7-.75-1.27-.94-1.27s-.33-.41-.33-.9a1.26,1.26,0,0,0-.6-1.13.61.61,0,0,1-.38-.81c.13-.33.06-.48-.15-.35s-.37-.19-.37-.73c0-.86-.35-1.15-1.23-1-.15,0-.3-.21-.33-.52a7.32,7.32,0,0,0-.14-.94,7.22,7.22,0,0,1-.14-1,1.13,1.13,0,0,0-.71-.83c-1.13-.43-1.53-1.06-1.8-2.87-.15-1-.42-1.76-.62-1.76s-.24.2-.09.43.1.33-.19.15a.73.73,0,0,1-.24-.85c.15-.4,0-.5-.35-.35s-.57,0-.57-.68c0-.49-.16-1-.35-1a1,1,0,0,1-.47-.69,4.94,4.94,0,0,0-1.2-1.6c-.59-.57-1-1.28-.88-1.56a1,1,0,0,0-.22-.94c-.23-.23-.28-.42-.1-.42s-.06-.33-.52-.73-.73-.92-.56-1.19.09-.39-.34-.22-.9-.79-.66-2.12c0-.17-.12-.2-.33-.07s-.39,0-.39-.28a2.73,2.73,0,0,0-.75-1.33,2.85,2.85,0,0,1-.75-1.58c0-.42-.17-.77-.37-.77s-.48-.42-.61-.94-.39-.94-.57-.94a.4.4,0,0,1-.34-.44,2.17,2.17,0,0,0-.58-1.08,3.58,3.58,0,0,1-.73-1.45c-.19-1-1.13-2-1.53-1.63-.16.15-.19,0-.06-.4s0-.66-.32-.66-.77-1-.59-2c0-.17-.12-.2-.33-.07s-.39,0-.39-.35a.56.56,0,0,0-.51-.59c-.33,0-.48-.35-.41-.94s-.05-.85-.24-.73-.34-.06-.34-.4-.17-.51-.38-.38-.38.07-.38-.14a.68.68,0,0,1,.47-.53c.3-.11,0-.6-.77-1.37s-1.14-1.36-1-1.56,0-.47-.36-.59a1.25,1.25,0,0,1-.59-1.13c0-.5-.17-.9-.38-.9s-.38-.42-.38-.92c0-.72-.17-.89-.75-.78s-.75-.06-.75-.89a3.26,3.26,0,0,0-.59-1.77c-.33-.4-.47-.48-.32-.17s.14.44,0,.29a9.68,9.68,0,0,1-1.55-2.65c-.13-.36-.37-.66-.54-.66s-.2-.37-.09-.81.08-.73-.22-.54-.44,0-.44-.32a.58.58,0,0,0-.57-.59c-.31,0-.57-.18-.57-.4s.18-.29.41-.15.18-.11-.09-.54-.63-.79-.8-.79-.2-.17-.07-.38,0-.48-.33-.6a.59.59,0,0,1-.36-.75.63.63,0,0,0-.42-.77.62.62,0,0,1-.43-.74c.12-.32,0-.42-.36-.29s-.55,0-.55-.51a2.09,2.09,0,0,0-.47-1.23c-.38-.41-.38-.45,0-.24.9.51.46-.35-.62-1.2a2.5,2.5,0,0,1-1.08-1.8,2.52,2.52,0,0,0-.8-1.64,2.27,2.27,0,0,1-.8-1.33c0-.39-.17-.53-.43-.37s-.33.1-.18-.14,0-.67-.34-1-.5-.75-.38-.94-.19-.83-.68-1.42a4.66,4.66,0,0,1-.93-1.44,5.56,5.56,0,0,0-1-1.58,4.42,4.42,0,0,1-1-1.77,1,1,0,0,0-.38-.8.43.43,0,0,1-.17-.58c.12-.19,0-.25-.37-.12s-.58,0-.58-.86a2.06,2.06,0,0,0-.73-1.62c-.4-.29-.65-.67-.54-.84s-.07-.41-.4-.54a1.36,1.36,0,0,1-.6-1.22c0-.78-.08-.87-.37-.43s-.37.35-.37-.43c0-1-.82-2-1.27-1.58-.14.14-.25-.21-.25-.78s-.16-.93-.38-.79-.38-.1-.38-.51a1,1,0,0,0-.47-.93c-.38-.15-.38-.2,0-.22a.49.49,0,0,0,.47-.47c0-.24-.1-.33-.23-.21s-.47,0-.75-.29c-.63-.63-.69-1.1-.09-.73.27.17.33.1.17-.17a1,1,0,0,0-.77-.43c-.7,0-1.35-.88-1.57-2.12a4.1,4.1,0,0,0-.59-1.54c-.22-.27-.25-.49-.07-.49s-.1-.37-.61-.8a2.79,2.79,0,0,1-1-1.5c-.09-1.36-.14-1.47-.8-1.47-.92,0-1.6-1.23-1.42-2.61.15-1.14-.31-1.6-.68-.69-.12.31-.2.26-.22-.13a2.45,2.45,0,0,0-.8-1.29,2,2,0,0,1-.66-1.47c.06-.46-.09-.74-.37-.68s-.47-.17-.47-.49.19-.49.47-.35.09-.1-.38-.51a2.54,2.54,0,0,1-.85-1.57,1,1,0,0,0-.66-1,3.53,3.53,0,0,1-1.6-2.68c0-.29-.19-.4-.44-.24s-.36.07-.21-.32,0-.66-.51-.78-.7-.43-.56-1.18c.1-.56,0-.89-.18-.76s-.35-.13-.35-.56S93.6,90,93.28,90s-.57-.18-.57-.4.2-.28.43-.13.33.1.16-.17a.49.49,0,0,0-.65-.21c-.21.13-.47-.12-.58-.56s-.36-.69-.54-.58-.33,0-.33-.35A4.13,4.13,0,0,0,91,86.4c-.18-.47-.12-.57.22-.37s.36.11,0-.49-.57-.64-.76-.33c-.35.57-.72.21-.79-.78,0-.42-.19-.69-.36-.59-.45.28-.36-.4.12-.88.3-.3.19-.49-.43-.68s-.73-.34-.32-.6.39-.33,0-.33a.55.55,0,0,1-.47-.59c0-.32-.15-.5-.33-.38s-.56-.06-.82-.38c-.4-.49-.4-.65,0-.9s.31-.37-.27-.55a1.79,1.79,0,0,1-1-1.51A2.2,2.2,0,0,0,85,75.54a.92.92,0,0,1-.56-.79c0-.32-.17-.58-.38-.58s-.38-.34-.38-.75-.19-.75-.42-.75-.32-.25-.2-.56,0-.52-.23-.47-.51-.32-.59-.82c-.11-.7-.21-.79-.47-.38s-.34.26-.34-.48A1.77,1.77,0,0,0,81,68.71a1,1,0,0,1-.38-.8,2,2,0,0,0-1.47-1.65c-.22,0-.29-.26-.17-.59s-.21-1.06-.86-1.78-.79-1-.43-.68.66.35.66.09-.34-.59-.75-.81a3.4,3.4,0,0,1-1.17-1.19c-.29-.55-.3-.71,0-.54s.33,0,.19-.33-.38-.58-.56-.58-.34-.35-.34-.78-.17-.67-.38-.54-.38-.07-.38-.45c0-.58-.06-.6-.37-.12s-.37.4-.37-.28c0-.47-.19-.85-.42-.85s-.32-.25-.2-.55a.67.67,0,0,0-.15-.78.42.42,0,0,1-.15-.58c.12-.19,0-.35-.18-.35s-.4-.28-.4-.63-.11-.52-.25-.38c-.41.41-1.6-1.26-1.44-2,.08-.41,0-.64-.22-.52s-.36-.17-.37-.65c0-1-.87-2.31-1.25-1.93-.14.14-.25,0-.25-.34a1,1,0,0,0-.6-.82.61.61,0,0,1-.41-.74c.22-.58-1-2.87-1.58-2.87-.36,0-2.85-4.88-2.74-5.37,0-.15-.12-.28-.34-.28s-.29-.17-.17-.38.05-.38-.17-.38a.45.45,0,0,1-.4-.48,1.74,1.74,0,0,0-.75-1,1.81,1.81,0,0,1-.75-1.22c0-.37-.17-.67-.38-.67s-.38-.33-.38-.73a1.26,1.26,0,0,0-.38-1,.42.42,0,0,1-.19-.55c.11-.17-.06-.41-.37-.53a.94.94,0,0,1-.56-.82c0-.33-.18-.49-.4-.35s-.36,0-.3-.26c.14-.72-.91-3.4-1.17-3-.12.19-.41-.07-.64-.57-.32-.67-.32-.91,0-.91s0-.26-.41-.59A1.88,1.88,0,0,1,55,23.49a.87.87,0,0,0-.56-.72.59.59,0,0,1-.35-.76.7.7,0,0,0-.25-.83c-.32-.2-.37-.12-.15.24s.17.4,0,.22a1.07,1.07,0,0,1-.35-.57A2.24,2.24,0,0,0,53,20.3c-.23-.36-.2-.44.1-.26s.35.06.21-.32-.38-.59-.56-.59-.34-.25-.34-.57a.56.56,0,0,0-.54-.57,1.05,1.05,0,0,1-.81-.44c-.18-.29-.1-.33.22-.13s.4.16.22-.13a1.05,1.05,0,0,0-.81-.44c-.66,0-.71-.81-.09-1.43.35-.35.26-.45-.4-.45s-.82-.19-.73-.66a2,2,0,0,0-.73-1.46,2.61,2.61,0,0,1-.86-1.39,1.06,1.06,0,0,0-.38-.83A.82.82,0,0,1,47.1,10c0-.21.21-.25.47-.09s.31.08,0-.35-.66-.54-.85-.43-.33,0-.33-.36a1.13,1.13,0,0,0-.52-.87,5.92,5.92,0,0,1-1.3-1.81c-.93-1.8-2.44-3.58-3-3.58-.24,0-.43-.14-.43-.32S36.7,1.95,31.36,2s-12-.07-14.8-.25C9.95,1.31,10,1.31,7,1.61a16.7,16.7,0,0,1-4.27-.12C1.27,1.16.94,1.2.35,1.8m295.2,85.75a.94.94,0,0,1-.56.82c-.31.12-.48.35-.38.51s-.07.5-.37.76-.47.6-.37.77a.42.42,0,0,1-.19.55c-.48.29-.51,2.08,0,2.08.19,0,.3-.28.25-.63-.1-.68.93-2,1.38-1.74.15.08.19-.09.08-.38a1,1,0,0,1,.38-1c.66-.55.77-1.74.2-2.09-.21-.13-.38,0-.38.37m-3.89,6.91a3.81,3.81,0,0,0-1,1.51.42.42,0,0,1-.38.45.39.39,0,0,0-.38.39,2.83,2.83,0,0,1-.75,1.2,2.78,2.78,0,0,0-.76,1.4,3.78,3.78,0,0,1-.47,1.42c-1.81,3.25-2.6,5-2.44,5.44s.34.11.61-.55.58-1,.77-.84.28-.2.18-.76,0-.89.21-.74.39,0,.39-.3a1.57,1.57,0,0,1,.56-1c.31-.26.47-.62.36-.8s.08-.33.42-.33.55-.2.42-.55a1.2,1.2,0,0,1,.35-1.12,2,2,0,0,0,.55-.76c0-.66,0-.71.4-.2s.38.47.2-.08a1.3,1.3,0,0,1,.25-1.15c.69-.75,2.13-3.67,1.81-3.67a4.42,4.42,0,0,0-1.29,1.06M58.79,105.28c0,.31.17.56.38.56s.34.13.3.28c-.14.51.5,2,.85,2,.19,0,.35.26.35.58a2.73,2.73,0,0,0,.75,1.39,2.75,2.75,0,0,1,.75,1.3c0,.27.15.49.33.49s.45.38.59.85.33.67.46.37a1.48,1.48,0,0,0,0-.94,4.2,4.2,0,0,1-.22-.75,4.19,4.19,0,0,0-1-1.17,2.88,2.88,0,0,1-1-1.48,1.06,1.06,0,0,0-.38-.83,1.16,1.16,0,0,1-.38-.9,2.64,2.64,0,0,0-.94-1.48c-.72-.63-.94-.69-.94-.26M284,107.41a10.88,10.88,0,0,0-1.32,2c-.3.62-1,1.89-1.58,2.81a7.16,7.16,0,0,0-1,2.32,1,1,0,0,1-.58.86,4.41,4.41,0,0,0-1.3,1.9,9.62,9.62,0,0,1-1.47,2.43,3.94,3.94,0,0,0-.92,1.86,7.29,7.29,0,0,1-.61,1.91c-.25.47-.28.81-.07.81s.48-.38.63-.85a2.4,2.4,0,0,1,.62-1.07,1.6,1.6,0,0,0,.47-.94c.07-.39.3-.68.53-.63s.31-.16.19-.47,0-.56.2-.56.42-.3.42-.66a3.44,3.44,0,0,1,.94-1.68,3.79,3.79,0,0,0,.94-1.41.39.39,0,0,1,.38-.39c.21,0,.38-.35.38-.78s.16-.68.47-.5.34.13.19,0-.09-.54.14-.82.28-.51.11-.51.17-.49.74-1.1a5,5,0,0,0,1-1.22,4.53,4.53,0,0,1,1-2.27,1.74,1.74,0,0,0,.41-1.26c-.11-.53-.24-.49-.9.25m-220.2,6.42a.38.38,0,0,0,.17.6.75.75,0,0,1,.44.68c0,.29.17.53.38.53s.38.24.38.54c0,.57.68,1.17,1,.86s-1.12-2.91-1.64-2.91c-.28,0-.41-.17-.28-.38s.15-.38,0-.38-.31.2-.47.45m2.87,5c0,.56,1.2,2.43,1.56,2.43s.31.26.19.57,0,.56.18.56c.55,0,0-2.34-.64-2.86-.29-.23-.41-.52-.28-.66s0-.25-.38-.25-.63.09-.63.21m3.17,5.69a6.1,6.1,0,0,1,1,1.92.44.44,0,0,0,.38.48.39.39,0,0,1,.38.39,4.05,4.05,0,0,0,.65,1.38,5.29,5.29,0,0,1,.72,1.49c.09.63,1.24,1.81,1.51,1.54s0-.81-1.14-2.72a12.32,12.32,0,0,1-.86-1.79c-.11-.36-.34-.66-.5-.66s-.49-.5-.75-1.11a4.45,4.45,0,0,0-1.4-1.73l-.94-.61,1,1.44m203.7.89a2.64,2.64,0,0,0-.65,1.32c0,.31-.17.56-.38.56a.43.43,0,0,0-.38.47,4,4,0,0,1-.93,1.55,7,7,0,0,0-1.17,1.85,19.16,19.16,0,0,1-1.33,2.61,9.6,9.6,0,0,0-1.09,2.28,2.86,2.86,0,0,1-.78,1.26,3.59,3.59,0,0,0-.87,1.47,1.5,1.5,0,0,1-.59.94.54.54,0,0,0-.24.71c.49.8,2.46-2,2.17-3.1-.05-.18.17-.23.49-.11s.56.1.54,0c-.13-.85.1-1.6.43-1.4s.38-.07.39-.45a3.5,3.5,0,0,1,.74-1.62,3.55,3.55,0,0,0,.75-1.41.44.44,0,0,1,.39-.47c.21,0,.38-.35.38-.78s.17-.67.38-.54.38-.12.38-.54.18-.78.4-.78.3-.16.18-.35a.44.44,0,0,1,.17-.59.44.44,0,0,0,.17-.59c-.12-.19-.07-.35.12-.35s.62-.52,1.52-2.36c.29-.59-.54-.25-1.16.48M74.66,132.21c-.36.22-.33.43.14.9a2.07,2.07,0,0,1,.59.81,4.75,4.75,0,0,0,1.53,2.46c.21,0,.3.15.18.34s0,.43.35.55a.6.6,0,0,1,.33.79c-.12.32-.07.58.13.58s.66.64,1,1.41c.45.93.75,1.23.88.87a.52.52,0,0,0-.24-.69c-.24-.08-.43-.53-.43-1a2,2,0,0,0-.57-1.34c-.32-.26-.49-.57-.38-.67s-.12-.42-.51-.69a3,3,0,0,1-.94-1.67c-.31-1.54-1.48-3-2.09-2.65m190,9.18a2.47,2.47,0,0,1-.73,1.38c-1.52,1.52-2.3,3.66-1.34,3.66a.64.64,0,0,0,.57-.69c0-.38.17-.69.38-.69s.38-.23.38-.52a1.56,1.56,0,0,1,.56-1c.31-.26.46-.64.33-.84a.55.55,0,0,1,.28-.7c.41-.25.42-.41,0-.79s-.47-.34-.47.17m-184.15.83a3,3,0,0,0,.71,1.52,2.1,2.1,0,0,1,.64,1.1,1.05,1.05,0,0,0,.8.81c.6.09.59,0-.09-.86a3.49,3.49,0,0,1-.75-1.46,1.07,1.07,0,0,0-.51-.8,2.19,2.19,0,0,1-.76-.87c-.14-.31-.15-.06,0,.57M83.24,147a1.84,1.84,0,0,0,.75,1c.3.1.34-.12.12-.71a1.84,1.84,0,0,0-.75-1c-.3-.1-.34.12-.12.72m177.69,1a3.54,3.54,0,0,0-1.2,1.7c0,.35-.13.63-.29.63-.45,0-1.23,2.31-.94,2.79.14.23,0,.21-.33-.05-.5-.4-.59-.31-.61.66,0,1.47.35,1.43,1-.1a24.41,24.41,0,0,1,1.35-2.54,3.38,3.38,0,0,0,.66-1.79.35.35,0,0,1,.38-.47c.3,0,.73-.42,1-.94.54-1.19.47-1.18-1,.13m-177.26.76a2.37,2.37,0,0,0,.75,1c.83.75,1,.53.36-.59-.39-.74-1.12-1-1.12-.41m1.51,2.33c0,.21.25.49.56.61s.47.37.36.55,0,.24.36.12.48-.35.12-.94c-.48-.76-1.4-1-1.4-.33m2.09,2.82c.39.62,1,1.72,1.37,2.45.66,1.31.66,1.31.68.28,0-.57-.15-1-.36-1a.39.39,0,0,1-.38-.39,3.79,3.79,0,0,0-1-1.41l-1-1,.7,1.13m167.94,3.38c-.52.29-.9.62-.85.74.34.79,0,2.48-.46,2.48-.31,0-.9.68-1.33,1.51s-.68,1.51-.56,1.51c.41,0-.9,2.1-2.07,3.33-.68.71-1.11,1.49-1,1.8.31.81,1.33-.33,2.48-2.77a6.62,6.62,0,0,1,1.18-2c.14,0,.35-.41.48-.92a3.75,3.75,0,0,1,.79-1.48c.68-.68,2.84-4.78,2.51-4.76a5.47,5.47,0,0,0-1.18.54M90.46,159.6a7.14,7.14,0,0,0,.73,1.72c.4.75.63,1.47.5,1.6s0,.23.21.23.44.26.44.59.15.5.33.38.55.34.82,1a9.43,9.43,0,0,0,.88,1.73,2.71,2.71,0,0,1,.47,1,11.66,11.66,0,0,0,1.49,2.5,9.56,9.56,0,0,1,1.42,2.43c0,.25.18.42.39.38a.36.36,0,0,1,.41.38c0,.92,1,1.47,1,.57,0-.46-.17-.83-.38-.83s-.38-.26-.38-.57-.13-.57-.3-.57c-.41,0-1.71-2.26-1.46-2.52s-.83-1.33-1.22-1.09c-.19.12-.44,0-.56-.35s0-.56.21-.56.2-.26-.15-.66a4.54,4.54,0,0,1-.8-1.63,5.56,5.56,0,0,0-1.19-2c-.53-.57-.87-1.17-.77-1.33s-.32-.86-.94-1.55-1.12-1.09-1.12-.9m156.69,11.94c-.33,1.23-.29,1.41.25,1.2s.82-2.05.31-2.05c-.18,0-.43.38-.56.85m-1.29,2.38a6.62,6.62,0,0,0-1.58,2.13c-.41.85-.64,1.43-.5,1.3s.47-.05.75.18.51.25.51-.38c0-.44.17-.8.37-.8s.48-.43.61-1a3,3,0,0,1,1-1.51c.56-.39.63-.56.23-.56a3.21,3.21,0,0,0-1.4.59M99.23,175.08c-.36.15-.36.29,0,.68s.59.42.74.33.28.18.28.6.17.78.38.78.38.34.38.75.17.75.38.75.38.25.38.57.17.57.38.57c.78,0,.07-2.19-1.12-3.47a2.77,2.77,0,0,1-.76-1.31c0-.51-.24-.57-1-.25m144.12,3.62c-.16.57-.53,1-.81,1s-.52.39-.52.94-.17.94-.38.94-.38.25-.38.57.17.57.38.57.38-.23.38-.51a5.86,5.86,0,0,1,1-1.93,3.87,3.87,0,0,0,.81-2c-.1-.42-.24-.28-.44.42m-140.08,3.49c0,.31.17.57.38.57s.38.26.38.58a2.74,2.74,0,0,0,.75,1.39c1,1.08,1,.22-.07-1.64-.85-1.52-1.44-1.88-1.44-.9m137.23,1.06c0,.35-.14.64-.32.64s-.51.43-.75,1c-.49,1.07-.59,2.34-.15,1.9a1,1,0,0,0,.28-.53,6.57,6.57,0,0,1,.9-1.51c.66-.93.78-1.37.47-1.68s-.42-.26-.42.22m-134.14,4.28a2.8,2.8,0,0,0,.78,1.31,2,2,0,0,1,.66,1.21,1.18,1.18,0,0,0,.47.9,1.16,1.16,0,0,1,.51.68c.12,1.07.67,2.07,1.15,2.07s.44-.17.14-.73a3.76,3.76,0,0,1-.39-1.48c0-.41-.13-.8-.28-.87a6.64,6.64,0,0,1-2.13-2.8,1.08,1.08,0,0,0-.56-.83c-.28-.09-.42.12-.34.54m130.47,1.37c-.22.46-.66,1.44-1,2.17a10.49,10.49,0,0,1-1.36,2.23c-.9,1-1,1.53-.25,1.53.29,0,.62-.39.74-.87a6.25,6.25,0,0,1,1.17-2,4.53,4.53,0,0,0,1-1.46,2.2,2.2,0,0,1,.57-1c.48-.53.49-.7.06-1.06s-.6-.24-.91.42m-126.4,5.49a1,1,0,0,0,.26.58,1.94,1.94,0,0,1,.36.9,1,1,0,0,0,.49.77.59.59,0,0,1,.4.5,6.27,6.27,0,0,0,.93,1.73c.51.75.82,1.53.7,1.74s0,.25.21.1.43,0,.43.31a1.4,1.4,0,0,0,.77,1c.85.45.82.35-.51-2.08-.34-.62-1-1.81-1.37-2.64s-.76-1.34-.77-1.13-.29-.17-.62-.85c-.56-1.13-1.26-1.64-1.26-.91m122,3a7.9,7.9,0,0,0-1.48,2.88c-.2.6-.14.64.34.24.31-.26.48-.62.37-.79-.23-.38,1.15-1.86,1.74-1.86.22,0,.3-.17.17-.38-.28-.44-.61-.47-1.13-.09M230,201.47a.84.84,0,0,0-.47.73c0,.29-.17.53-.38.53s-.38.27-.38.59a2,2,0,0,1-.47,1.12,15.78,15.78,0,0,0-2.32,3.29c-.58,1-.9,1.79-.73,1.8s0,.22-.28.47c-.72.55-2,2.91-1.58,2.92.16,0,.1.13-.14.28a15.54,15.54,0,0,0-1.86,2.92c-.79,1.45-1.91,3.35-2.49,4.21a6.51,6.51,0,0,0-1.06,2.15,1.38,1.38,0,0,1-.75,1,1.37,1.37,0,0,0-.75,1c0,.3-.17.55-.38.55s-.38.47-.38,1a4.4,4.4,0,0,1-1.29,2.48,7.83,7.83,0,0,0-1.53,2.41,7.55,7.55,0,0,1-1.12,2.14,21.84,21.84,0,0,0-1.65,2.71,8.13,8.13,0,0,1-1.32,2,3.47,3.47,0,0,0-.79,1.71,5.36,5.36,0,0,1-1.35,2.34,3.71,3.71,0,0,0-1.12,1.78,4.85,4.85,0,0,1-1.49,2.9,15.94,15.94,0,0,0-2.67,4.09,1.51,1.51,0,0,1-.57.81,1.68,1.68,0,0,0-.56,1.12,10.7,10.7,0,0,1-1.5,3,10.58,10.58,0,0,0-1.31,2.32c.25,0-1,1.87-1.8,2.8a4.75,4.75,0,0,0-.89,2,4.76,4.76,0,0,1-1.11,2.12,8.87,8.87,0,0,0-1.53,2.56,10.8,10.8,0,0,1-1.29,2.44,25.88,25.88,0,0,0-1.86,2.92,6.78,6.78,0,0,1-1.57,2.17c-.19,0-.35.35-.35.78a4.87,4.87,0,0,1-1.75,3.26,2.81,2.81,0,0,0-.88,1.66,4.94,4.94,0,0,1-1,2.19c-1.35,1.76-3.12,5.18-2.83,5.47.12.12-.05.22-.39.22s-.9.63-1.27,1.41a18,18,0,0,1-1.48,2.55,8.52,8.52,0,0,0-1.09,2,12.76,12.76,0,0,1-1.27,2.4,12.43,12.43,0,0,0-1,1.78,1.62,1.62,0,0,1-1.58,1.56c-.53,0-.85.11-.71.25.31.31,2.1.42,2,.12a3.73,3.73,0,0,1,1-1.26c.57-.58.93-1.23.79-1.46s-.1-.32.09-.2c.4.24,1.34-.66,1-1-.12-.12.06-.33.4-.46s.62-.4.62-.6-.21-.24-.47-.09-.13-.14.28-.64a6.45,6.45,0,0,0,1.7-3.19c0-.33.15-.5.34-.38s.31-.37.28-1.08.08-1.2.25-1.09c.41.26,1.37-1,1.38-1.86,0-.36.18-.66.39-.66s.38-.25.38-.57.15-.57.34-.57.52-.51.73-1.13.67-1.13,1-1.13.5-.18.36-.4.07-.75.45-1.17.66-.88.62-1,.25-.63.66-1.09a2.94,2.94,0,0,0,.74-1.41c0-.31.17-.56.38-.56s.38-.25.38-.57.19-.57.42-.57.33-.24.21-.53.19-.82.67-1.18a2.21,2.21,0,0,0,.87-1.48c0-1,1.56-2.89,2.13-2.57.23.13.21,0,0-.26s-.31-.62.26-1.12a2.82,2.82,0,0,0,.83-1.16,2.82,2.82,0,0,1,.68-1.11,2.86,2.86,0,0,0,.69-1.13,1.52,1.52,0,0,1,.66-.87,1.62,1.62,0,0,0,.54-1.29,3.11,3.11,0,0,1,1.22-2.1c.67-.61.93-.9.57-.64s-.66.35-.66,0a.84.84,0,0,1,.57-.65,1.07,1.07,0,0,0,.57-1c0-.4.13-.65.3-.55s.53-.36.81-1a15.2,15.2,0,0,1,1.21-2.2,3.93,3.93,0,0,0,.7-1.79,1.69,1.69,0,0,1,.75-1.26,1.53,1.53,0,0,0,.75-.95.44.44,0,0,1,.38-.48c.21,0,.38-.43.38-1s.16-.86.38-.73.38-.07.39-.45c0-.83.91-2.08,1.25-1.74.13.13.25,0,.25-.39a1,1,0,0,1,.56-.86c.31-.12.47-.36.36-.55-.21-.35,2.07-5,2.57-5.18a.61.61,0,0,0,.28-.53,5.08,5.08,0,0,1,.94-1.64,4.51,4.51,0,0,0,.94-2c0-.44.17-.7.38-.57s.38,0,.38-.36.14-.59.32-.59,1.59-2.67,1.71-3.47a2,2,0,0,1,.51-.74,1.64,1.64,0,0,0,.47-1,.45.45,0,0,1,.38-.49c.21,0,.38-.26.38-.59s.18-.48.43-.32.33.1.18-.14,0-.66.32-1a2,2,0,0,0,.57-1.18c0-.34.17-.51.37-.38s.28,0,.17-.31a1.3,1.3,0,0,1,.42-1.16,1.59,1.59,0,0,0,.44-1.34c-.12-.45,0-.65.27-.54s.7-.3,1-.88a4.32,4.32,0,0,1,1-1.36c.26-.17.39-.45.28-.63a.43.43,0,0,1,.19-.57.44.44,0,0,0,.17-.59c-.12-.19,0-.35.21-.35s.33-.15.21-.34,0-.43.35-.55a.6.6,0,0,0,.31-.86c-.17-.43-.1-.55.2-.37s.44-.07.44-.76.11-.92.24-.79c.31.31,2.78-3.57,2.53-4-.1-.16,0-.29.17-.29s.45-.3.57-.66a16.62,16.62,0,0,1,1.15-2.23c.51-.86.83-1.67.71-1.79s-.05-.22.16-.22.69-.67,1.06-1.5.85-1.39,1.06-1.26.27,0,.11-.2-.3-.42-.34-.4l-.54.22m-114.46,2.08c.7.77,1,.71.69-.14a.9.9,0,0,0-.76-.56c-.46,0-.44.12.08.69m1.08,1.42c-.24.39.47,1.9,1.12,2.37.21.15.22.28,0,.28s0,.39.42.85a14.51,14.51,0,0,1,1.66,2.67c.49,1,1,1.64,1,1.42.22-.65-.71-3.17-1.46-4a9,9,0,0,1-1.27-2.14c-.63-1.51-1.17-2-1.52-1.46m4.51,8.32c-.13.2,0,.37.38.37s.5.18.36.4.19,1.06.73,1.88a6.43,6.43,0,0,1,1,2,3.87,3.87,0,0,0,.92,1.55,5.94,5.94,0,0,1,1.15,2.12,4.66,4.66,0,0,0,1,1.84,2.75,2.75,0,0,1,.74,1.18.39.39,0,0,0,.38.39c.21,0,.38.34.38.75s.17.75.38.75.38.35.38.78.14.69.32.58.72.69,1.21,1.77a25.84,25.84,0,0,0,1.56,3c.36.54.56,1.09.43,1.22s0,.34.39.47.52.39.41.58,0,.34.25.34.35.11.22.24.09.71.5,1.28a4.13,4.13,0,0,1,.74,1.46.41.41,0,0,0,.4.41c.22,0,.29.17.17.38s-.08.38.11.38.54.68.79,1.51.69,1.51,1,1.51.74.47,1,1,.63,1.53.93,2.13a5.18,5.18,0,0,1,.54,1.63c0,.29.17.42.38.3s.38.08.38.46a1.83,1.83,0,0,0,.75,1.24,1.81,1.81,0,0,1,.75,1.21c0,.37.17.67.38.67s.38.51.38,1.13.17,1.13.38,1.13.38.3.38.67a1.81,1.81,0,0,0,.75,1.21,1.74,1.74,0,0,1,.75,1,.83.83,0,0,0,.52.7c.31.12.45.53.34,1-.15.67-.1.72.22.26s.41-.41.41-.09a2,2,0,0,0,.81,1.74,1.44,1.44,0,0,1,.48,1.15c-.09.24.34,1,1,1.72A4.92,4.92,0,0,1,150,264.4a1.52,1.52,0,0,0,.56.92c.31.26.47.62.35.8s0,.33.19.33.36.21.3.47a.3.3,0,0,0,.38.38c.26-.05.47.26.47.68s.14.69.31.58.54.39.82,1.11.65,1.3.82,1.3.31.34.31.75.17.75.38.75.34.21.28.47a.3.3,0,0,0,.38.38c.28-.06.47.29.47.85s.17.94.38.94.38.34.38.75.17.75.38.75.38.23.38.52a1.56,1.56,0,0,0,.56,1c.31.26.47.62.35.8s.07.33.4.33.51.16.39.35a.44.44,0,0,0,.17.59,6.76,6.76,0,0,1,1.16,1.82c1.44,2.91,1.9,3.65,2.25,3.65s.48.13-.37-2.18a12.27,12.27,0,0,0-1.6-3,13.64,13.64,0,0,1-1.6-2.64c-.39-.87-.86-1.59-1-1.59s-.33-.3-.33-.66a2.92,2.92,0,0,0-.57-1.39,2.68,2.68,0,0,1-.55-1.17,18.26,18.26,0,0,0-1.91-3.33c-1-1.59-2.33-3.73-2.84-4.75a8.51,8.51,0,0,0-1.34-2.11,7.33,7.33,0,0,1-1.23-2,30.83,30.83,0,0,0-4-6.66,7,7,0,0,1-1.32-2.63,12.3,12.3,0,0,0-1.5-3.21,5.18,5.18,0,0,1-.93-1.69,3.15,3.15,0,0,0-1-1.33,13.9,13.9,0,0,1-2.09-3.27,6.88,6.88,0,0,0-1.49-2.36c-.2,0-.36-.23-.36-.51a11.77,11.77,0,0,0-2.14-4.24,5.06,5.06,0,0,1-.88-1.51,6.26,6.26,0,0,0-1.26-1.72,6.85,6.85,0,0,1-1.51-2.62c-.23-1.15-4.19-7.53-4.85-7.82-.16-.07-.29-.44-.29-.83,0-1.16-.85-2.67-1.38-2.46-.27.11-.46.07-.41-.08.38-1.31-2.32-5.57-2.92-4.6m41.94,72.6c-.34.34.13,1.31.52,1.07a1,1,0,0,0,.34-.75c0-.55-.45-.72-.85-.32m.85,1.66c0,.42.18.75.4.75s.3.16.18.35,0,.58.26.86a5.54,5.54,0,0,1,1.42,2.74c0,.31.15.57.33.57s.6.57.93,1.27a6.34,6.34,0,0,0,1.17,1.74,2,2,0,0,1,.57,1.33,1.19,1.19,0,0,0,.57,1.07.93.93,0,0,1,.57.79c0,.35.33.57.85.57.79,0,.8,0,.19-.52a5.39,5.39,0,0,1-1.18-2.21,15,15,0,0,0-2.87-4.8,3.63,3.63,0,0,1-.49-1.79c0-.26-.15-.47-.31-.47s-.67-.68-1.14-1.51c-.93-1.65-1.46-1.92-1.46-.75"/></g></g></g></svg>